<svg width="32" height="33" viewBox="0 0 32 33" fill="none" xmlns="http://www.w3.org/2000/svg">
<g clip-path="url(#clip0_67_326)">
<path d="M22.4508 4.09362H17.877V4.84549C17.877 5.27293 17.5272 5.62268 17.0998 5.62268H7.80563C7.3782 5.62268 7.02845 5.27293 7.02845 4.84549V4.09362H2.45462C1.49037 4.09362 0.705933 4.87812 0.705933 5.84231V30.7513C0.705933 31.7155 1.49043 32.5 2.45462 32.5H22.4507C23.415 32.5 24.1994 31.7155 24.1994 30.7513V5.84231C24.1995 4.87812 23.415 4.09362 22.4508 4.09362Z" fill="#707487"/>
<path d="M1.99375 30.7514V5.84231C1.99375 4.87806 2.77825 4.09362 3.74244 4.09362H2.45462C1.49037 4.09362 0.705933 4.87812 0.705933 5.84231V30.7513C0.705933 31.7155 1.49043 32.5 2.45462 32.5H3.74244C2.77819 32.5 1.99375 31.7155 1.99375 30.7514Z" fill="#5B5D6E"/>
<path d="M22.2565 24.9169V7.8147C22.2565 7.61263 22.083 7.44888 21.8691 7.44888H3.0363C2.82236 7.44888 2.64893 7.6127 2.64893 7.8147V30.1912C2.64893 30.3933 2.82236 30.5571 3.0363 30.5571H16.6162L22.2565 24.9169Z" fill="#E4EAF8"/>
<path d="M3.93674 30.1912V7.8147C3.93674 7.6127 4.11018 7.44888 4.32412 7.44888H3.03636C2.82242 7.44888 2.64899 7.6127 2.64899 7.8147V30.1912C2.64899 30.3933 2.82242 30.5571 3.03636 30.5571H4.32418C4.11018 30.5571 3.93674 30.3932 3.93674 30.1912Z" fill="#D8DCE5"/>
<path d="M15.8574 9.75797H9.04805C8.46055 9.75797 7.98254 9.27996 7.98254 8.6924V5.36514C7.98254 5.09846 8.19873 4.88221 8.46548 4.88221C8.73217 4.88221 8.94842 5.09839 8.94842 5.36514V8.69234C8.94842 8.74728 8.99311 8.79203 9.04811 8.79203H15.8575C15.9124 8.79203 15.9572 8.74728 15.9572 8.69234V5.36514C15.9572 5.09846 16.1734 4.88221 16.4401 4.88221C16.7069 4.88221 16.9231 5.09839 16.9231 5.36514V8.69234C16.923 9.27996 16.4449 9.75797 15.8574 9.75797Z" fill="#00C3FF"/>
<path d="M13.9914 2.54532V1.27719C13.9914 0.849751 13.6416 0.5 13.2142 0.5H11.6912C11.2638 0.5 10.914 0.849751 10.914 1.27719V2.54525L13.9914 2.54532Z" fill="#D8DCE5"/>
<path d="M13.0028 0.5H11.6911C11.2637 0.5 10.9139 0.849751 10.9139 1.27719V2.54525H12.2255V1.27719C12.2256 0.849751 12.5753 0.5 13.0028 0.5Z" fill="#C3C8D1"/>
<path d="M17.1043 2.51307H7.80115C7.35734 2.51307 6.99628 2.87413 6.99628 3.31794V4.85001C6.99628 5.29382 7.35734 5.65488 7.80115 5.65488H17.1042C17.548 5.65488 17.9091 5.29382 17.9091 4.85001V3.31794C17.9092 2.87413 17.5481 2.51307 17.1043 2.51307Z" fill="#E4EAF8"/>
<path d="M17.1043 4.36711H7.80115C7.35734 4.36711 6.99628 4.00604 6.99628 3.56223V4.84998C6.99628 5.2938 7.35734 5.65486 7.80115 5.65486H17.1042C17.548 5.65486 17.9091 5.2938 17.9091 4.84998V3.56223C17.9092 4.00604 17.5481 4.36711 17.1043 4.36711Z" fill="#D8DCE5"/>
<path d="M22.2565 24.9169H17.0038C16.7898 24.9169 16.6164 25.0807 16.6164 25.2827V30.557L22.2565 24.9169Z" fill="#D8DCE5"/>
<path d="M17.9041 25.2827C17.9041 25.0806 18.0775 24.9169 18.2915 24.9169H17.0036C16.7897 24.9169 16.6163 25.0807 16.6163 25.2827V30.557L17.9041 29.2692V25.2827Z" fill="#C3C8D1"/>
<path d="M28.3295 5.62271C27.2247 5.62378 26.2624 6.2304 25.7547 7.12815L25.7546 7.12797C25.7546 7.12797 25.5896 7.33247 25.3701 7.33259C25.1507 7.3329 24.9855 7.12897 24.9855 7.12897H24.9849C24.4754 6.23246 23.5123 5.62753 22.4073 5.62865C20.7719 5.63028 19.4472 6.95753 19.449 8.59291C19.4535 12.8657 24.1581 15.3554 25.1834 15.8472C25.1841 15.8474 25.3644 15.9163 25.5739 15.8472C26.5966 15.3541 31.2984 12.8547 31.2941 8.58091C31.2923 6.9454 29.9653 5.62109 28.3295 5.62271Z" fill="#FF6161"/>
<path d="M20.7367 8.59289C20.7352 7.17801 21.7268 5.99457 23.0532 5.69982C22.8451 5.6537 22.6292 5.62838 22.4072 5.62857C20.7718 5.6302 19.4471 6.95745 19.4489 8.59283C19.4534 12.8656 24.158 15.3553 25.1832 15.8472C25.1839 15.8474 25.3642 15.9163 25.5738 15.8471C25.6838 15.794 25.8366 15.7177 26.0213 15.6185C24.4857 14.7976 20.7407 12.405 20.7367 8.59289Z" fill="#DD4343"/>
<path d="M11.1498 22.7263C11.142 22.7263 11.1342 22.7261 11.1264 22.7257C10.9155 22.7155 10.7357 22.5695 10.6824 22.3653L9.06674 16.1719L8.36742 18.4697C8.30555 18.673 8.11799 18.812 7.90542 18.812H5.59311C5.32642 18.812 5.11017 18.5958 5.11017 18.329C5.11017 18.0623 5.32636 17.8461 5.59311 17.8461H7.54761L8.64049 14.2552C8.70349 14.0483 8.89649 13.907 9.11224 13.913C9.32836 13.9173 9.51524 14.0647 9.5698 14.2738L11.2276 20.6289L12.1361 18.1532C12.2058 17.963 12.3869 17.8366 12.5894 17.8366H14.2092C14.4112 17.8366 14.5919 17.9623 14.6621 18.1518L14.8451 18.6463L15.7473 15.1272C15.8006 14.9193 15.9847 14.7715 16.1991 14.7645C16.4148 14.757 16.6071 14.8927 16.674 15.0965L17.5734 17.8367H19.3374C19.6041 17.8367 19.8204 18.0528 19.8204 18.3196C19.8204 18.5863 19.6042 18.8025 19.3374 18.8025H17.2237C17.015 18.8025 16.8299 18.6685 16.7648 18.4702L16.2721 16.9693L15.3969 20.3837C15.3444 20.5883 15.1651 20.7351 14.9541 20.746C14.7424 20.7567 14.5496 20.6295 14.4762 20.4314L13.8731 18.8025H12.9267L11.6031 22.4097C11.533 22.6005 11.3514 22.7263 11.1498 22.7263Z" fill="#FF6161"/>
</g>
<defs>
<clipPath id="clip0_67_326">
<rect width="32" height="32" fill="white" transform="translate(0 0.5)"/>
</clipPath>
</defs>
</svg>
