<svg width="32" height="33" viewBox="0 0 32 33" fill="none" xmlns="http://www.w3.org/2000/svg">
<g clip-path="url(#clip0_67_346)">
<path d="M25.4952 32.1208H29.5526C30.3749 32.1208 30.9846 31.2623 30.8031 30.36L27.2492 12.2702H25.4952V32.1208Z" fill="#D8DCE5"/>
<path d="M25.4952 12.2701V32.1208H27.3875C27.4797 31.8887 27.531 31.636 27.531 31.3715L27.5309 13.7043L27.2492 12.2701H25.4952Z" fill="#C3C8D1"/>
<path d="M26.2444 12.3581C23.0834 12.3581 20.5209 9.79569 20.5209 6.63469C20.5209 6.57675 20.5221 6.51912 20.5238 6.46162H0.74925C0.337187 6.46162 0 6.79881 0 7.21087V31.3716C0 31.7836 0.337187 32.1208 0.74925 32.1208H25.4953C25.9073 32.1208 26.2445 31.7836 26.2445 31.3716V12.3581H26.2444Z" fill="#E4EAF8"/>
<path d="M1.2865 31.3716V7.21087C1.2865 6.79881 1.62369 6.46162 2.03575 6.46162H0.74925C0.337187 6.46162 0 6.79881 0 7.21087V31.3716C0 31.7836 0.337187 32.1208 0.74925 32.1208H2.03575C1.62369 32.1209 1.2865 31.7837 1.2865 31.3716Z" fill="#D8DCE5"/>
<path d="M20.521 6.63475C20.521 6.57681 20.5221 6.51919 20.5238 6.46169H0.826688C0.372 6.46162 0 6.83362 0 7.28831V12.3582H26.2444C23.0834 12.3581 20.521 9.79569 20.521 6.63475Z" fill="#00C3FF"/>
<path d="M2.03562 6.46162H0.826625C0.372 6.46162 0 6.83362 0 7.28831V12.3582H1.2865V7.21094C1.2865 6.79887 1.62356 6.46175 2.03562 6.46162Z" fill="#06B0F2"/>
<path d="M21.7441 17.3908H4.50029C4.00316 17.3908 3.6001 16.9877 3.6001 16.4906C3.6001 15.9935 4.00316 15.5904 4.50029 15.5904H21.7441C22.2412 15.5904 22.6443 15.9935 22.6443 16.4906C22.6443 16.9877 22.2413 17.3908 21.7441 17.3908Z" fill="#D8DCE5"/>
<path d="M21.7441 16.4906H4.50029C4.16729 16.4906 3.87722 16.3093 3.72147 16.0405C3.64472 16.173 3.60004 16.3264 3.60004 16.4906C3.60004 16.9877 4.0031 17.3908 4.50022 17.3908H21.744C22.2412 17.3908 22.6442 16.9877 22.6442 16.4906C22.6442 16.3264 22.5996 16.1731 22.5228 16.0405C22.3672 16.3094 22.0771 16.4906 21.7441 16.4906Z" fill="#C3C8D1"/>
<path d="M26.2444 0.879135C23.0708 0.879135 20.4888 3.46107 20.4888 6.63476C20.4888 9.80839 23.0708 12.3903 26.2444 12.3903C29.418 12.3903 32 9.80839 32 6.63476C32 3.46107 29.418 0.879135 26.2444 0.879135Z" fill="#FF6161"/>
<path d="M21.7753 6.63476C21.7753 3.67851 24.0157 1.23614 26.8876 0.91526C26.6764 0.891635 26.4618 0.879135 26.2444 0.879135C23.0708 0.879135 20.4888 3.46107 20.4888 6.63476C20.4888 9.80839 23.0708 12.3903 26.2444 12.3903C26.4618 12.3903 26.6764 12.3778 26.8876 12.3542C24.0157 12.0333 21.7753 9.59095 21.7753 6.63476Z" fill="#DD4343"/>
<path d="M28.8767 5.62175H27.4152C27.328 5.62175 27.2574 5.55106 27.2574 5.46387V4.00231C27.2574 3.91512 27.1867 3.84444 27.0995 3.84444H25.3893C25.3021 3.84444 25.2314 3.91512 25.2314 4.00231V5.46381C25.2314 5.551 25.1607 5.62169 25.0735 5.62169H23.612C23.5249 5.62169 23.4542 5.69237 23.4542 5.77956V7.48975C23.4542 7.57694 23.5249 7.64762 23.612 7.64762H25.0735C25.1607 7.64762 25.2314 7.71831 25.2314 7.8055V9.267C25.2314 9.35419 25.3021 9.42487 25.3893 9.42487H27.0995C27.1867 9.42487 27.2574 9.35419 27.2574 9.267V7.80562C27.2574 7.71844 27.328 7.64775 27.4152 7.64775H28.8767C28.9639 7.64775 29.0346 7.57706 29.0346 7.48987V5.77962C29.0347 5.69244 28.9639 5.62175 28.8767 5.62175Z" fill="#E4EAF8"/>
<path d="M26.3678 9.26713V7.80563C26.3678 7.71844 26.2971 7.64775 26.2099 7.64775H25.0735C25.1607 7.64775 25.2314 7.71844 25.2314 7.80563V9.26713C25.2314 9.35431 25.3021 9.425 25.3893 9.425H26.5257C26.4385 9.425 26.3678 9.35431 26.3678 9.26713Z" fill="#D8DCE5"/>
<path d="M26.3678 5.46387V4.00231C26.3678 3.91512 26.4385 3.84444 26.5257 3.84444H25.3892C25.3021 3.84444 25.2314 3.91512 25.2314 4.00231V5.46381C25.2314 5.551 25.1607 5.62169 25.0734 5.62169H26.2099C26.2971 5.62175 26.3678 5.55106 26.3678 5.46387Z" fill="#D8DCE5"/>
<path d="M24.5905 7.4898V5.77961C24.5905 5.69242 24.6612 5.62173 24.7485 5.62173H23.612C23.5249 5.62173 23.4542 5.69242 23.4542 5.77961V7.4898C23.4542 7.57698 23.5249 7.64767 23.612 7.64767H24.7485C24.6612 7.64767 24.5905 7.57698 24.5905 7.4898Z" fill="#D8DCE5"/>
<path d="M4.33919 9.00798C4.07275 9.00798 3.85675 8.79204 3.85675 8.52554V4.55304C3.85675 4.28654 4.07275 4.0706 4.33919 4.0706C4.60563 4.0706 4.82163 4.28654 4.82163 4.55304V8.52554C4.82163 8.79204 4.60563 9.00798 4.33919 9.00798Z" fill="#FFC850"/>
<path d="M8.73073 9.00798C8.46429 9.00798 8.24829 8.79204 8.24829 8.52554V4.55304C8.24829 4.28654 8.46429 4.0706 8.73073 4.0706C8.99717 4.0706 9.21317 4.28654 9.21317 4.55304V8.52554C9.21317 8.79204 8.99717 9.00798 8.73073 9.00798Z" fill="#FFC850"/>
<path d="M13.1223 9.00798C12.8558 9.00798 12.6398 8.79204 12.6398 8.52554V4.55304C12.6398 4.28654 12.8558 4.0706 13.1223 4.0706C13.3887 4.0706 13.6047 4.28654 13.6047 4.55304V8.52554C13.6047 8.79204 13.3887 9.00798 13.1223 9.00798Z" fill="#FFC850"/>
<path d="M17.5137 9.00798C17.2473 9.00798 17.0313 8.79204 17.0313 8.52554V4.55304C17.0313 4.28654 17.2473 4.0706 17.5137 4.0706C17.7802 4.0706 17.9962 4.28654 17.9962 4.55304V8.52554C17.9962 8.79204 17.7802 9.00798 17.5137 9.00798Z" fill="#FFC850"/>
<path d="M21.7441 21.2549H4.50029C4.00316 21.2549 3.6001 20.8519 3.6001 20.3547C3.6001 19.8576 4.00316 19.4546 4.50029 19.4546H21.7441C22.2412 19.4546 22.6443 19.8576 22.6443 20.3547C22.6443 20.8519 22.2413 21.2549 21.7441 21.2549Z" fill="#D8DCE5"/>
<path d="M21.7441 20.3548H4.50029C4.16729 20.3548 3.87722 20.1735 3.72147 19.9047C3.64472 20.0372 3.60004 20.1906 3.60004 20.3548C3.60004 20.8519 4.0031 21.255 4.50022 21.255H21.744C22.2412 21.255 22.6442 20.8519 22.6442 20.3548C22.6442 20.1906 22.5996 20.0373 22.5228 19.9047C22.3672 20.1735 22.0771 20.3548 21.7441 20.3548Z" fill="#C3C8D1"/>
<path d="M21.7441 25.1191H4.50029C4.00316 25.1191 3.6001 24.7161 3.6001 24.2189C3.6001 23.7218 4.00316 23.3188 4.50029 23.3188H21.7441C22.2412 23.3188 22.6443 23.7218 22.6443 24.2189C22.6443 24.7161 22.2413 25.1191 21.7441 25.1191Z" fill="#D8DCE5"/>
<path d="M21.7441 24.219H4.50029C4.16729 24.219 3.87722 24.0377 3.72147 23.7688C3.64472 23.9013 3.60004 24.0548 3.60004 24.219C3.60004 24.7161 4.0031 25.1192 4.50022 25.1192H21.744C22.2412 25.1192 22.6442 24.7161 22.6442 24.219C22.6442 24.0548 22.5996 23.9014 22.5228 23.7688C22.3672 24.0377 22.0771 24.219 21.7441 24.219Z" fill="#C3C8D1"/>
<path d="M21.7441 28.9833H4.50029C4.00316 28.9833 3.6001 28.5802 3.6001 28.0831C3.6001 27.586 4.00316 27.1829 4.50029 27.1829H21.7441C22.2412 27.1829 22.6443 27.586 22.6443 28.0831C22.6443 28.5802 22.2413 28.9833 21.7441 28.9833Z" fill="#D8DCE5"/>
<path d="M21.7441 28.0831H4.50029C4.16729 28.0831 3.87722 27.9017 3.72147 27.6329C3.64472 27.7654 3.60004 27.9189 3.60004 28.0831C3.60004 28.5802 4.0031 28.9832 4.50022 28.9832H21.744C22.2412 28.9832 22.6442 28.5802 22.6442 28.0831C22.6442 27.9189 22.5996 27.7655 22.5228 27.6329C22.3672 27.9017 22.0771 28.0831 21.7441 28.0831Z" fill="#C3C8D1"/>
</g>
<defs>
<clipPath id="clip0_67_346">
<rect width="32" height="32" fill="white" transform="translate(0 0.5)"/>
</clipPath>
</defs>
</svg>
