<svg width="32" height="33" viewBox="0 0 32 33" fill="none" xmlns="http://www.w3.org/2000/svg">
<g clip-path="url(#clip0_67_377)">
<path d="M5.83511 8.62549H3.19817C2.68417 8.62549 2.26361 9.04605 2.26361 9.56005V15.8727C2.26361 15.4243 2.62711 15.0608 3.07549 15.0608H5.83505L5.83511 8.62549Z" fill="#E57D1F"/>
<path d="M3.55142 9.56005C3.55142 9.04605 3.97199 8.62549 4.48599 8.62549H3.19817C2.68417 8.62549 2.26361 9.04605 2.26361 9.56005V15.8727C2.26361 15.4243 2.62711 15.0608 3.07555 15.0608H3.55142V9.56005Z" fill="#CE6A17"/>
<path d="M28.8018 8.62549H26.1649V11.1742H28.9244C29.3729 11.1742 29.7364 11.5377 29.7364 11.9861V9.55999C29.7364 9.04605 29.3159 8.62549 28.8018 8.62549Z" fill="#E57D1F"/>
<path d="M27.646 8.62563H26.165V11.1744H27.646V8.62563Z" fill="#CE6A17"/>
<path d="M17.8983 15.0608C18.1235 15.0608 18.3385 14.9672 18.492 14.8026L21.6354 11.4324C21.789 11.2677 22.004 11.1742 22.2292 11.1742H26.3582V1.45875C26.3582 0.92925 25.9289 0.5 25.3993 0.5H6.60072C6.07122 0.5 5.64197 0.92925 5.64197 1.45875V15.0608H17.8983Z" fill="#E4EAF8"/>
<path d="M7.88853 0.5H6.60072C6.07122 0.5 5.64197 0.92925 5.64197 1.45875V15.0608H6.92978V1.45875C6.92978 0.92925 7.35903 0.5 7.88853 0.5Z" fill="#D8DCE5"/>
<path d="M22.7963 5.25065H9.20382C8.93714 5.25065 8.72089 5.03446 8.72089 4.76771C8.72089 4.50096 8.93707 4.28477 9.20382 4.28477H22.7963C23.063 4.28477 23.2792 4.50096 23.2792 4.76771C23.2792 5.03446 23.063 5.25065 22.7963 5.25065Z" fill="#C3C8D1"/>
<path d="M22.7963 7.48945H9.20382C8.93714 7.48945 8.72089 7.27326 8.72089 7.00651C8.72089 6.73976 8.93707 6.52357 9.20382 6.52357H22.7963C23.063 6.52357 23.2792 6.73976 23.2792 7.00651C23.2792 7.27326 23.063 7.48945 22.7963 7.48945Z" fill="#C3C8D1"/>
<path d="M22.7963 9.7282H9.20382C8.93714 9.7282 8.72089 9.51202 8.72089 9.24527C8.72089 8.97852 8.93707 8.76233 9.20382 8.76233H22.7963C23.063 8.76233 23.2792 8.97852 23.2792 9.24527C23.2792 9.51202 23.063 9.7282 22.7963 9.7282Z" fill="#C3C8D1"/>
<path d="M22.7963 11.9669H9.20382C8.93714 11.9669 8.72089 11.7507 8.72089 11.484C8.72089 11.2172 8.93707 11.0011 9.20382 11.0011H22.7963C23.063 11.0011 23.2792 11.2172 23.2792 11.484C23.2792 11.7507 23.063 11.9669 22.7963 11.9669Z" fill="#C3C8D1"/>
<path d="M3.07549 14.8676H17.8982C18.1234 14.8676 18.3384 14.7741 18.492 14.6095L21.6354 11.2393C21.7889 11.0746 22.004 10.9811 22.2291 10.9811H28.9245C29.3729 10.9811 29.7364 11.3446 29.7364 11.793V31.6881C29.7364 32.1365 29.3729 32.5 28.9245 32.5H3.07549C2.62711 32.5 2.26361 32.1365 2.26361 31.6881V15.6795C2.26361 15.2311 2.62711 14.8676 3.07549 14.8676Z" fill="#FC932B"/>
<path d="M3.55142 31.6881V15.6795C3.55142 15.2311 3.91493 14.8676 4.36336 14.8676H3.07549C2.62711 14.8676 2.26355 15.2311 2.26355 15.6795V31.6881C2.26355 32.1365 2.62705 32.5 3.07549 32.5H4.3633C3.91493 32.5 3.55142 32.1365 3.55142 31.6881Z" fill="#E57D1F"/>
<path d="M19.7798 14.6095L22.9232 11.2393C23.0768 11.0746 23.2918 10.9811 23.5169 10.9811H22.2291C22.004 10.9811 21.7889 11.0746 21.6354 11.2393L18.492 14.6095C18.3384 14.7741 18.1234 14.8676 17.8983 14.8676H19.1861C19.4112 14.8676 19.6263 14.7741 19.7798 14.6095Z" fill="#E57D1F"/>
<path d="M16 29.9881C19.3776 29.9881 22.1157 27.2501 22.1157 23.8725C22.1157 20.495 19.3776 17.7569 16 17.7569C12.6225 17.7569 9.8844 20.495 9.8844 23.8725C9.8844 27.2501 12.6225 29.9881 16 29.9881Z" fill="#E4EAF8"/>
<path d="M11.1723 23.8725C11.1723 20.7124 13.5691 18.1124 16.644 17.7906C16.4323 17.7685 16.2175 17.7569 16.0001 17.7569C12.6225 17.7569 9.88452 20.495 9.88452 23.8725C9.88452 27.25 12.6226 29.988 16.0001 29.988C16.2176 29.988 16.4323 29.9765 16.644 29.9543C13.5691 29.6326 11.1723 27.0325 11.1723 23.8725Z" fill="#D8DCE5"/>
<path d="M18.8127 22.7901H17.2511C17.1579 22.7901 17.0824 22.7145 17.0824 22.6214V21.0597C17.0824 20.9666 17.0069 20.8911 16.9137 20.8911H15.0864C14.9932 20.8911 14.9177 20.9666 14.9177 21.0597V22.6214C14.9177 22.7146 14.8422 22.7901 14.7491 22.7901H13.1874C13.0942 22.7901 13.0187 22.8656 13.0187 22.9587V24.7861C13.0187 24.8792 13.0943 24.9547 13.1874 24.9547H14.7491C14.8422 24.9547 14.9177 25.0303 14.9177 25.1234V26.6851C14.9177 26.7782 14.9933 26.8537 15.0864 26.8537H16.9137C17.0069 26.8537 17.0824 26.7782 17.0824 26.6851V25.1234C17.0824 25.0302 17.158 24.9547 17.2511 24.9547H18.8127C18.9059 24.9547 18.9814 24.8792 18.9814 24.7861V22.9587C18.9814 22.8656 18.9059 22.7901 18.8127 22.7901Z" fill="#707487"/>
<path d="M14.3064 24.7861V22.9588C14.3064 22.8656 14.3819 22.7901 14.4751 22.7901H13.1873C13.0941 22.7901 13.0186 22.8657 13.0186 22.9588V24.7861C13.0186 24.8793 13.0941 24.9548 13.1873 24.9548H14.4751C14.3819 24.9549 14.3064 24.8793 14.3064 24.7861Z" fill="#5B5D6E"/>
<path d="M16.2054 22.6214V21.0598C16.2054 20.9666 16.281 20.8911 16.3741 20.8911H15.0863C14.9931 20.8911 14.9176 20.9666 14.9176 21.0598V22.6214C14.9176 22.7146 14.842 22.7901 14.7488 22.7901H16.0367C16.1298 22.7901 16.2054 22.7146 16.2054 22.6214Z" fill="#5B5D6E"/>
<path d="M16.2054 26.6853V25.1236C16.2054 25.0305 16.1298 24.955 16.0367 24.955H14.7488C14.842 24.955 14.9176 25.0305 14.9176 25.1236V26.6853C14.9176 26.7785 14.9932 26.854 15.0863 26.854H16.3741C16.2809 26.854 16.2054 26.7784 16.2054 26.6853Z" fill="#5B5D6E"/>
</g>
<defs>
<clipPath id="clip0_67_377">
<rect width="32" height="32" fill="white" transform="translate(0 0.5)"/>
</clipPath>
</defs>
</svg>
